<svg width="25" height="25" viewBox="0 0 25 25" fill="none" xmlns="http://www.w3.org/2000/svg">
<path d="M24.2676 19.6126C3.97051 19.6126 4.87554 19.6164 4.87427 19.6059C4.65181 17.8245 4.66074 17.9384 4.67524 17.9363C14.415 17.8856 -8.87417 17.9395 22.6475 17.9395C23.9607 17.9395 24.9512 16.9445 24.9512 15.625V5.70068C24.9512 4.73877 24.1687 3.95483 23.2068 3.95312L17.1434 3.94268V2.39258C17.1434 1.53101 16.4424 0.830078 15.5809 0.830078H14.1174C13.2561 0.830078 12.5554 1.53081 12.5554 2.39209V3.93477L6.05098 3.92344L5.56343 1.23828C5.4332 0.520801 4.80937 0 4.08013 0H0.732422C0.32793 0 0 0.32793 0 0.732422C0 1.13691 0.32793 1.46484 0.732422 1.46484C4.2771 1.46484 4.11226 1.44536 4.12217 1.49995C4.91685 5.87651 4.41108 2.81772 6.54307 16.4617L4.6686 16.4714C3.78838 16.4748 3.10317 17.2475 3.21304 18.1267L3.42065 19.7876C3.5126 20.5229 4.14077 21.0775 4.88184 21.0775H6.18164C5.26367 22.8599 6.56382 25 8.57749 25C10.5902 25 11.8917 22.8607 10.9733 21.0775H17.9492C17.0312 22.8599 18.3314 25 20.3451 25C22.3578 25 23.6593 22.8608 22.7409 21.0775H24.2676C24.6721 21.0775 25 20.7496 25 20.3451C25 19.9406 24.6721 19.6126 24.2676 19.6126ZM14.0203 2.39209C14.0203 2.33853 14.0639 2.29492 14.1174 2.29492H15.5809C15.6348 2.29492 15.6786 2.33872 15.6786 2.39258V7.8125C15.6786 8.21699 16.0065 8.54492 16.411 8.54492H17.4987L15.216 10.8291C15.0134 11.0317 14.6854 11.0317 14.4828 10.8291L12.2 8.54492H13.2878C13.6923 8.54492 14.0202 8.21699 14.0202 7.8125L14.0203 2.39209ZM12.5554 5.39961V7.08008H11.3328C10.3501 7.08008 9.85566 8.27119 10.5509 8.96699L13.4468 11.8646C14.2219 12.6401 15.4769 12.6402 16.2521 11.8646L19.1479 8.96699C19.8427 8.27183 19.3496 7.08008 18.366 7.08008H17.1434V5.40752L23.2043 5.41797C23.3599 5.41821 23.4863 5.54507 23.4863 5.70068V15.625C23.4863 16.1332 23.1492 16.4746 22.6475 16.4746H8.02773L6.29546 5.38872L12.5554 5.39961ZM9.8063 22.3063C9.8063 22.9839 9.25503 23.5352 8.57744 23.5352C7.89985 23.5352 7.34863 22.9839 7.34863 22.3063C7.34863 21.6287 7.8999 21.0774 8.57749 21.0774C9.25508 21.0774 9.8063 21.6288 9.8063 22.3063ZM21.5739 22.3063C21.5739 22.9839 21.0227 23.5352 20.3451 23.5352C19.6675 23.5352 19.1162 22.9839 19.1162 22.3063C19.1162 21.6287 19.6675 21.0774 20.3451 21.0774C21.0227 21.0774 21.5739 21.6288 21.5739 22.3063Z" fill="white"/>
</svg>
