<svg width="28" height="25" viewBox="0 0 28 25" fill="none" xmlns="http://www.w3.org/2000/svg">
<path d="M27.434 6.69326C27.4277 6.68657 27.4211 6.68 27.4144 6.67365L21.7206 1.61306C21.6686 1.5657 21.608 1.52896 21.542 1.50481L17.4232 0.0326414C17.1422 -0.0693822 16.8317 0.0757376 16.7297 0.356708C16.7113 0.407382 16.7006 0.460491 16.6979 0.514344C16.6979 0.633417 16.5193 3.3775 13.7752 3.4208C11.0149 3.3775 10.8417 0.633417 10.8363 0.514344C10.8203 0.215851 10.5654 -0.013161 10.2669 0.00280556C10.2156 0.00557941 10.1649 0.0155923 10.1164 0.0326414L6.00301 1.52105C5.93698 1.5452 5.87636 1.58194 5.8244 1.6293L0.168454 6.67365C-0.0482449 6.87952 -0.05704 7.22212 0.148834 7.43882C0.155193 7.44552 0.161756 7.45208 0.168454 7.45844L4.67156 12.0103V24.4588C4.67156 24.7577 4.9139 25 5.2128 25H22.3701C22.669 25 22.9113 24.7577 22.9113 24.4588V12.0103L27.4144 7.45844C27.6311 7.25257 27.6399 6.91003 27.434 6.69326ZM22.8951 10.4677V7.95638C22.8951 7.65748 22.6527 7.41514 22.3538 7.41514C22.0549 7.41514 21.8126 7.65748 21.8126 7.95638V23.8905H5.73239V7.95638C5.73239 7.65748 5.49005 7.41514 5.19115 7.41514C4.89225 7.41514 4.64991 7.65748 4.64991 7.95638V10.4731L1.32129 7.10122L6.47389 2.48987L9.86205 1.26667C10.2818 3.42932 12.3752 4.84229 14.5379 4.42256C16.135 4.11257 17.3838 2.8638 17.6938 1.26667L21.0819 2.48987L26.2183 7.10122L22.8951 10.4677Z" fill="white"/>
</svg>
