<svg width="22" height="25" viewBox="0 0 22 25" fill="none" xmlns="http://www.w3.org/2000/svg">
<path d="M21.6336 24.1783L19.7335 6.08387C19.6936 5.70507 19.3743 5.41744 18.9934 5.41744H15.4221V4.6032C15.4221 2.06509 13.357 0 10.8189 0C8.2806 0 6.21551 2.06509 6.21551 4.6032V5.41744H2.64419C2.26329 5.41744 1.944 5.70507 1.90414 6.08387L0.00403975 24.1783C-0.0178948 24.3879 0.0501976 24.5972 0.191151 24.754C0.332294 24.9105 0.533329 25 0.744091 25H20.8933C21.1043 25 21.3053 24.9105 21.4463 24.754C21.5876 24.5972 21.6555 24.3879 21.6336 24.1783ZM7.70362 4.6032C7.70362 2.88563 9.10114 1.48811 10.8189 1.48811C12.5365 1.48811 13.934 2.88563 13.934 4.6032V5.41744H7.70362V4.6032ZM1.57035 23.5119L3.31424 6.90556H6.21551V8.5453C6.21551 8.95615 6.54873 9.28936 6.95957 9.28936C7.37041 9.28936 7.70362 8.95615 7.70362 8.5453V6.90556H13.934V8.5453C13.934 8.95615 14.2672 9.28936 14.678 9.28936C15.0889 9.28936 15.4221 8.95615 15.4221 8.5453V6.90556H18.3234L20.0672 23.5119H1.57035Z" fill="white"/>
</svg>
