<svg width="25" height="15" viewBox="0 0 25 15" fill="none" xmlns="http://www.w3.org/2000/svg">
<path d="M21.1963 6.42617H20.9055C19.8191 6.42617 18.761 6.04346 17.9259 5.34844L12.1734 0.560596C11.739 0.199072 11.1886 0 10.6234 0C9.28745 0 8.20054 1.08691 8.20054 2.4229V2.98862C8.20054 4.09077 7.30386 4.9875 6.20166 4.9875C5.42803 4.9875 4.71694 4.53442 4.39004 3.83325L4.23081 3.4917C3.86782 2.71318 3.07827 2.21016 2.21934 2.21016C0.995605 2.21016 0 3.20571 0 4.42949V10.2299C0 12.3272 1.70635 14.0336 3.80371 14.0336H21.1963C23.2937 14.0336 25 12.3272 25 10.2299C25 8.13252 23.2937 6.42617 21.1963 6.42617ZM21.1963 12.5688H3.80371C2.93315 12.5688 2.17271 12.0903 1.77002 11.3829H23.23C22.8273 12.0903 22.0668 12.5688 21.1963 12.5688ZM1.46484 9.91812V4.42949C1.46484 4.01343 1.80332 3.675 2.21934 3.675C2.51133 3.675 2.77979 3.84605 2.90317 4.11069L3.0624 4.4522C3.62886 5.66724 4.86108 6.45234 6.20171 6.45234C8.11162 6.45234 9.66543 4.89854 9.66543 2.98862V2.4229C9.66543 1.89463 10.0952 1.46484 10.6235 1.46484C10.8469 1.46484 11.0646 1.54355 11.2364 1.68652L12.6476 2.86108L11.0396 4.46899L12.0754 5.50479L13.7782 3.8021L14.4145 4.33169L12.8791 5.86704L13.9149 6.90283L15.5451 5.27271L16.1813 5.8023L14.7186 7.26509L15.7543 8.30088L17.3225 6.73276C18.3617 7.48228 19.6186 7.89111 20.9056 7.89111H21.1964C22.3803 7.89111 23.3608 8.77549 23.5138 9.91812H1.46484Z" fill="white"/>
</svg>
