<svg width="25" height="25" viewBox="0 0 25 25" fill="none" xmlns="http://www.w3.org/2000/svg">
<path d="M21.3213 3.64517C16.4399 -1.2182 8.54094 -1.21744 3.66174 3.66176C0.194557 7.12914 -0.861353 12.2025 0.712212 16.6646L0.730714 16.7168C1.82191 19.768 5.7358 20.645 8.03702 18.3438L8.72939 17.6512C10.5898 18.8744 13.1327 18.6797 14.7812 17.0312L17.4971 14.3153C17.6802 14.1324 17.7832 13.8838 17.7832 13.6248C17.7832 13.366 17.6802 13.1175 17.4971 12.9344L16.5966 12.0339L19.281 9.34968C19.6625 8.96821 19.6625 8.35003 19.281 7.96875C18.8998 7.58728 18.2814 7.58728 17.9001 7.96875L15.2157 10.6532L14.3467 9.78417L17.0699 7.06104C17.4511 6.67957 17.4511 6.0614 17.0699 5.68012C16.6884 5.29884 16.0702 5.29865 15.6889 5.68012L12.9658 8.40325L12.0653 7.50279C11.6841 7.12132 11.0657 7.12132 10.6844 7.50279L7.96854 10.2185C6.32689 11.8603 6.12032 14.4019 7.34865 16.2703L6.6559 16.9629C5.40163 18.2171 3.19463 17.8067 2.56959 16.0588L2.55433 16.0161C1.23158 12.2651 2.10458 7.98096 5.04267 5.04288C9.15778 0.927763 15.8184 0.919371 19.9429 5.02876C24.0613 9.13186 24.0706 15.8377 19.9624 19.9517C16.9478 22.9707 12.6417 23.7355 8.98383 22.4454C8.47533 22.2661 7.91743 22.5329 7.73814 23.0416C7.55865 23.5501 7.82568 24.1078 8.33418 24.2871C12.6812 25.8202 17.7802 24.9009 21.3444 21.3317C26.2156 16.4536 26.2053 8.5114 21.3213 3.64517ZM9.34947 11.5996L11.3749 9.57417L15.4257 13.625L13.4003 15.6502C12.2835 16.7672 10.4664 16.7672 9.34947 15.6502C8.23271 14.5335 8.23271 12.7163 9.34947 11.5996Z" fill="white"/>
</svg>
