<svg width="20" height="29" viewBox="0 0 20 29" fill="none" xmlns="http://www.w3.org/2000/svg">
<path d="M11.0947 8.51087L13.6488 6.3824C13.649 6.38229 13.6491 6.38218 13.6493 6.38201L13.6508 6.38079C13.659 6.37396 13.6666 6.36673 13.6742 6.3594C13.6758 6.35784 13.6776 6.3564 13.6792 6.35484C13.6887 6.34534 13.6977 6.33545 13.7062 6.32522C13.7072 6.32394 13.7081 6.32255 13.7091 6.32133C13.7163 6.31239 13.7232 6.30327 13.7296 6.29388C13.7321 6.29021 13.7343 6.28632 13.7367 6.2826C13.7412 6.27538 13.7458 6.26821 13.7499 6.26082C13.7527 6.25571 13.7552 6.25043 13.7578 6.2452C13.7609 6.23892 13.7641 6.23259 13.7669 6.22614C13.7696 6.2202 13.7719 6.21409 13.7742 6.20797C13.7766 6.20197 13.7788 6.19592 13.7808 6.1898C13.783 6.18347 13.7848 6.17702 13.7867 6.17052C13.7885 6.16424 13.7901 6.15791 13.7916 6.15157C13.793 6.14529 13.7943 6.13896 13.7955 6.13257C13.7968 6.12534 13.7979 6.11812 13.7988 6.11084C13.7996 6.10517 13.8003 6.09956 13.8009 6.09384C13.8017 6.08445 13.8021 6.07506 13.8023 6.06566C13.8023 6.06244 13.8028 6.05933 13.8028 6.05611C13.8028 6.05538 13.8027 6.05466 13.8027 6.05394C13.8026 6.04033 13.802 6.02682 13.8006 6.01321C13.8005 6.01165 13.8001 6.01015 13.8 6.0086C13.7987 5.99698 13.797 5.98548 13.7947 5.97398C13.7936 5.96853 13.7921 5.96325 13.7908 5.95786C13.7891 5.95047 13.7873 5.94314 13.7852 5.9358C13.7833 5.92947 13.7811 5.9233 13.7789 5.91708C13.7768 5.91096 13.7747 5.90485 13.7722 5.89879C13.7696 5.89218 13.7667 5.88568 13.7637 5.87923C13.7611 5.87379 13.7586 5.86834 13.7558 5.86301C13.7525 5.85645 13.7489 5.85006 13.7452 5.84373C13.7436 5.84084 13.7422 5.83784 13.7404 5.835L12.7031 4.1449C12.6262 4.01971 12.4899 3.94336 12.343 3.94336H11.6902C11.6901 3.94336 11.6901 3.94336 11.6901 3.94336L7.65687 3.94347C7.50995 3.94347 7.37358 4.01977 7.29673 4.14502L6.25956 5.835C6.25778 5.83789 6.25639 5.84084 6.25472 5.84373C6.25106 5.85006 6.24744 5.85645 6.24411 5.86301C6.24133 5.86834 6.23878 5.87379 6.23628 5.87923C6.23333 5.88568 6.23038 5.89218 6.22772 5.89879C6.22527 5.90485 6.22316 5.91096 6.22105 5.91708C6.21888 5.9233 6.21666 5.92947 6.21477 5.9358C6.2126 5.94314 6.21088 5.95047 6.2091 5.95786C6.20782 5.96325 6.20638 5.96853 6.20527 5.97398C6.20299 5.98548 6.20127 5.99698 6.19999 6.0086C6.19982 6.01015 6.19949 6.01165 6.19932 6.01321C6.19793 6.02682 6.19732 6.04033 6.19727 6.05394C6.19727 6.05466 6.19715 6.05538 6.19715 6.05611C6.19715 6.05933 6.19754 6.06244 6.19766 6.06566C6.19782 6.07506 6.19821 6.08445 6.19904 6.09384C6.19954 6.09956 6.20038 6.10517 6.2011 6.11084C6.20204 6.11812 6.2031 6.12534 6.20443 6.13257C6.2056 6.13896 6.20699 6.14529 6.20838 6.15157C6.20988 6.15791 6.21149 6.16424 6.21327 6.17052C6.2151 6.17702 6.21699 6.18347 6.2191 6.1898C6.22116 6.19592 6.22344 6.20197 6.22572 6.20797C6.22811 6.21409 6.23038 6.2202 6.233 6.22614C6.23583 6.23259 6.239 6.23892 6.24216 6.2452C6.24478 6.25043 6.24722 6.25571 6.25006 6.26082C6.25417 6.26821 6.25872 6.27538 6.26328 6.2826C6.26567 6.28632 6.26784 6.29021 6.27034 6.29388C6.27673 6.30327 6.28367 6.31239 6.29084 6.32133C6.29184 6.32261 6.29279 6.324 6.29379 6.32522C6.30223 6.33539 6.31118 6.34528 6.32074 6.35484C6.32235 6.35645 6.32407 6.35784 6.32574 6.3594C6.3333 6.36673 6.34096 6.37396 6.34919 6.38079L6.35063 6.38201C6.3508 6.38218 6.35097 6.38229 6.35113 6.3824L8.90526 8.51087C3.90442 9.05789 0 13.3066 0 18.4506C0 23.9647 4.486 28.4506 10 28.4506C15.514 28.4506 20 23.9647 20 18.4506C20 13.3066 16.0956 9.05789 11.0947 8.51087ZM10.4225 7.97098V6.47876H12.2132L10.4225 7.97098ZM11.8651 4.78866H12.1065L12.6251 5.63368H11.0201L11.8651 4.78866ZM10.67 4.78871L10 5.45864L9.33002 4.78871H10.67ZM7.89337 4.78877H8.13486L8.97983 5.63368H7.37481L7.89337 4.78877ZM7.78679 6.47876H9.57746V7.97098L7.78679 6.47876ZM10 27.6056C4.95193 27.6056 0.845077 23.4987 0.845077 18.4506C0.845077 13.4026 4.95193 9.29572 10 9.29572C15.0481 9.29572 19.1549 13.4026 19.1549 18.4506C19.1549 23.4987 15.0481 27.6056 10 27.6056Z" fill="white"/>
<path d="M17.6568 15.2171C17.4484 14.7247 17.1909 14.2497 16.8907 13.8052C16.5932 13.3652 16.2517 12.9517 15.876 12.5754C15.4996 12.1996 15.0862 11.8581 14.6461 11.5607C14.2016 11.261 13.7267 11.003 13.2349 10.7945C12.2101 10.3613 11.1216 10.1416 9.99991 10.1416C8.87822 10.1416 7.78975 10.3613 6.76553 10.7945C6.27314 11.003 5.7982 11.261 5.35371 11.5607C4.91372 11.8581 4.50019 12.1996 4.12383 12.5754C3.74808 12.9517 3.40667 13.3652 3.10921 13.8052C2.80948 14.2497 2.55148 14.7246 2.34299 15.2171C1.90978 16.2413 1.69006 17.3298 1.69006 18.4514C1.69006 20.0745 2.15822 21.6475 3.04386 22.999C3.4709 23.6514 3.98752 24.2402 4.57854 24.75C5.17345 25.2621 5.83543 25.6869 6.54642 26.012C7.0771 26.2548 7.63544 26.4413 8.20557 26.5669C8.79148 26.6959 9.39483 26.7613 9.99936 26.7613H10.0011C10.6163 26.7613 11.2304 26.6937 11.8259 26.5601C12.4051 26.43 12.9712 26.2367 13.5098 25.9855C14.0383 25.7392 14.543 25.4351 15.0095 25.0824C15.4726 24.732 15.8997 24.332 16.2799 23.8937C16.4326 23.7173 16.4134 23.4503 16.2377 23.2976C16.1611 23.2306 16.0625 23.1939 15.9611 23.1939C15.8388 23.1939 15.7222 23.2469 15.6422 23.3393L15.6416 23.3399C15.2991 23.7342 14.9148 24.0936 14.4991 24.4087C14.0799 24.7258 13.627 24.9985 13.1526 25.2199C12.6687 25.4458 12.1599 25.6193 11.6399 25.736C11.1053 25.8554 10.5532 25.9163 9.99997 25.9163C8.92167 25.9163 7.88105 25.6915 6.90811 25.2481C6.90478 25.2463 6.90139 25.2447 6.898 25.2436C6.898 25.243 6.89744 25.243 6.89689 25.243C6.25858 24.9506 5.66423 24.5692 5.13016 24.1089C4.59888 23.6514 4.13466 23.1225 3.75097 22.5365C2.95551 21.3225 2.5352 19.9095 2.5352 18.4514C2.5352 17.443 2.73241 16.4656 3.12166 15.5461C3.49741 14.6577 4.03547 13.8594 4.72168 13.1731C5.40783 12.487 6.20618 11.9489 7.09404 11.5731C8.01403 11.1838 8.99146 10.9867 9.99997 10.9867C11.0084 10.9867 11.9859 11.1839 12.9053 11.5731C13.7938 11.9489 14.592 12.4869 15.2783 13.1731C15.9644 13.8593 16.5025 14.6577 16.8782 15.5461C17.2675 16.4655 17.4647 17.4429 17.4647 18.4514C17.4647 19.0875 17.3847 19.7191 17.2269 20.3286C17.0737 20.9196 16.8472 21.492 16.5531 22.0289C16.499 22.128 16.4866 22.2425 16.5181 22.3506C16.5503 22.4588 16.6218 22.5483 16.721 22.6024C16.7829 22.6363 16.8534 22.6543 16.9232 22.6543C17.0782 22.6543 17.2201 22.5703 17.2945 22.4346C17.6219 21.8369 17.8743 21.1997 18.0449 20.5405C18.2207 19.8617 18.3097 19.1585 18.3097 18.4515C18.3098 17.3297 18.0901 16.2412 17.6568 15.2171Z" fill="white"/>
<path d="M9.99993 0C9.76655 0 9.57739 0.189153 9.57739 0.422538V2.11264C9.57739 2.34602 9.76655 2.53517 9.99993 2.53517C10.2333 2.53517 10.4225 2.34602 10.4225 2.11264V0.422538C10.4225 0.189153 10.2333 0 9.99993 0Z" fill="white"/>
<path d="M6.98565 2.80785L6.14057 1.34414C6.02388 1.14198 5.76549 1.07285 5.56339 1.18949C5.36129 1.30618 5.29205 1.56457 5.40874 1.76667L6.25382 3.23039C6.33206 3.36597 6.47409 3.44171 6.62012 3.44171C6.6918 3.44171 6.76449 3.42343 6.831 3.38503C7.0331 3.26834 7.10234 3.00995 6.98565 2.80785Z" fill="white"/>
<path d="M14.4367 1.18948C14.2346 1.07284 13.9762 1.14202 13.8595 1.34412L13.0145 2.80778C12.8978 3.00983 12.967 3.26827 13.1691 3.38497C13.2356 3.42336 13.3083 3.44164 13.38 3.44164C13.526 3.44164 13.668 3.36591 13.7463 3.23032L14.5914 1.76666C14.7081 1.56456 14.6388 1.30617 14.4367 1.18948Z" fill="white"/>
</svg>
